<svg width="53" height="33" viewBox="0 0 53 33" fill="none" xmlns="http://www.w3.org/2000/svg">
<path d="M39.75 0H0V33H39.75V23.1L53 29.7V0L39.75 9.9V0ZM9.9375 23.1C6.27719 23.1 3.3125 20.1465 3.3125 16.5C3.3125 12.8535 6.27719 9.9 9.9375 9.9C13.5978 9.9 16.5625 12.8535 16.5625 16.5C16.5625 20.1465 13.5978 23.1 9.9375 23.1ZM26.5 23.1C22.8397 23.1 19.875 20.1465 19.875 16.5C19.875 12.8535 22.8397 9.9 26.5 9.9C30.1603 9.9 33.125 12.8535 33.125 16.5C33.125 20.1465 30.1603 23.1 26.5 23.1Z" fill="#C6B419"/>
</svg>
