<svg width="235" height="118" viewBox="0 0 235 118" fill="none" xmlns="http://www.w3.org/2000/svg">
<path d="M39.75 50H0V83H39.75V73.1L53 79.7V50L39.75 59.9V50ZM9.9375 73.1C6.27719 73.1 3.3125 70.1465 3.3125 66.5C3.3125 62.8535 6.27719 59.9 9.9375 59.9C13.5978 59.9 16.5625 62.8535 16.5625 66.5C16.5625 70.1465 13.5978 73.1 9.9375 73.1ZM26.5 73.1C22.8397 73.1 19.875 70.1465 19.875 66.5C19.875 62.8535 22.8397 59.9 26.5 59.9C30.1603 59.9 33.125 62.8535 33.125 66.5C33.125 70.1465 30.1603 73.1 26.5 73.1Z" fill="#C6B419"/>
<path d="M29.88 14.872V40H24.84V23.656L18.108 40H14.292L7.524 23.656V40H2.484V14.872H8.208L16.2 33.556L24.192 14.872H29.88ZM43.7189 40.324C41.7989 40.324 40.0709 39.904 38.5349 39.064C36.9989 38.2 35.7869 36.988 34.8989 35.428C34.0349 33.868 33.6029 32.068 33.6029 30.028C33.6029 27.988 34.0469 26.188 34.9349 24.628C35.8469 23.068 37.0829 21.868 38.6429 21.028C40.2029 20.164 41.9429 19.732 43.8629 19.732C45.7829 19.732 47.5229 20.164 49.0829 21.028C50.6429 21.868 51.8669 23.068 52.7549 24.628C53.6669 26.188 54.1229 27.988 54.1229 30.028C54.1229 32.068 53.6549 33.868 52.7189 35.428C51.8069 36.988 50.5589 38.2 48.9749 39.064C47.4149 39.904 45.6629 40.324 43.7189 40.324ZM43.7189 35.932C44.6309 35.932 45.4829 35.716 46.2749 35.284C47.0909 34.828 47.7389 34.156 48.2189 33.268C48.6989 32.38 48.9389 31.3 48.9389 30.028C48.9389 28.132 48.4349 26.68 47.4269 25.672C46.4429 24.64 45.2309 24.124 43.7909 24.124C42.3509 24.124 41.1389 24.64 40.1549 25.672C39.1949 26.68 38.7149 28.132 38.7149 30.028C38.7149 31.924 39.1829 33.388 40.1189 34.42C41.0789 35.428 42.2789 35.932 43.7189 35.932ZM66.1359 35.356L71.1759 20.056H76.5399L69.1599 40H63.0399L55.6959 20.056H61.0959L66.1359 35.356ZM81.9267 17.68C81.0387 17.68 80.2947 17.404 79.6947 16.852C79.1187 16.276 78.8307 15.568 78.8307 14.728C78.8307 13.888 79.1187 13.192 79.6947 12.64C80.2947 12.064 81.0387 11.776 81.9267 11.776C82.8147 11.776 83.5467 12.064 84.1227 12.64C84.7227 13.192 85.0227 13.888 85.0227 14.728C85.0227 15.568 84.7227 16.276 84.1227 16.852C83.5467 17.404 82.8147 17.68 81.9267 17.68ZM84.4107 20.056V40H79.3707V20.056H84.4107ZM107.93 29.596C107.93 30.316 107.882 30.964 107.786 31.54H93.2063C93.3263 32.98 93.8303 34.108 94.7183 34.924C95.6063 35.74 96.6983 36.148 97.9943 36.148C99.8663 36.148 101.198 35.344 101.99 33.736H107.426C106.85 35.656 105.746 37.24 104.114 38.488C102.482 39.712 100.478 40.324 98.1023 40.324C96.1823 40.324 94.4543 39.904 92.9183 39.064C91.4063 38.2 90.2183 36.988 89.3543 35.428C88.5143 33.868 88.0942 32.068 88.0942 30.028C88.0942 27.964 88.5143 26.152 89.3543 24.592C90.1943 23.032 91.3703 21.832 92.8823 20.992C94.3943 20.152 96.1343 19.732 98.1023 19.732C99.9983 19.732 101.69 20.14 103.178 20.956C104.69 21.772 105.854 22.936 106.67 24.448C107.51 25.936 107.93 27.652 107.93 29.596ZM102.71 28.156C102.686 26.86 102.218 25.828 101.306 25.06C100.394 24.268 99.2783 23.872 97.9583 23.872C96.7103 23.872 95.6543 24.256 94.7903 25.024C93.9503 25.768 93.4343 26.812 93.2423 28.156H102.71ZM119.241 40.324C117.609 40.324 116.145 40.036 114.849 39.46C113.553 38.86 112.521 38.056 111.753 37.048C111.009 36.04 110.601 34.924 110.529 33.7H115.605C115.701 34.468 116.073 35.104 116.721 35.608C117.393 36.112 118.221 36.364 119.205 36.364C120.165 36.364 120.909 36.172 121.437 35.788C121.989 35.404 122.265 34.912 122.265 34.312C122.265 33.664 121.929 33.184 121.257 32.872C120.609 32.536 119.565 32.176 118.125 31.792C116.637 31.432 115.413 31.06 114.453 30.676C113.517 30.292 112.701 29.704 112.005 28.912C111.333 28.12 110.997 27.052 110.997 25.708C110.997 24.604 111.309 23.596 111.933 22.684C112.581 21.772 113.493 21.052 114.669 20.524C115.869 19.996 117.273 19.732 118.881 19.732C121.257 19.732 123.153 20.332 124.569 21.532C125.985 22.708 126.765 24.304 126.909 26.32H122.085C122.013 25.528 121.677 24.904 121.077 24.448C120.501 23.968 119.721 23.728 118.737 23.728C117.825 23.728 117.117 23.896 116.613 24.232C116.133 24.568 115.893 25.036 115.893 25.636C115.893 26.308 116.229 26.824 116.901 27.184C117.573 27.52 118.617 27.868 120.033 28.228C121.473 28.588 122.661 28.96 123.597 29.344C124.533 29.728 125.337 30.328 126.009 31.144C126.705 31.936 127.065 32.992 127.089 34.312C127.089 35.464 126.765 36.496 126.117 37.408C125.493 38.32 124.581 39.04 123.381 39.568C122.205 40.072 120.825 40.324 119.241 40.324ZM144.186 40L138.642 30.208H136.266V40H131.226V14.872H140.658C142.602 14.872 144.258 15.22 145.626 15.916C146.994 16.588 148.014 17.512 148.686 18.688C149.382 19.84 149.73 21.136 149.73 22.576C149.73 24.232 149.25 25.732 148.29 27.076C147.33 28.396 145.902 29.308 144.006 29.812L150.018 40H144.186ZM136.266 26.428H140.478C141.846 26.428 142.866 26.104 143.538 25.456C144.21 24.784 144.546 23.86 144.546 22.684C144.546 21.532 144.21 20.644 143.538 20.02C142.866 19.372 141.846 19.048 140.478 19.048H136.266V26.428ZM172.829 29.596C172.829 30.316 172.781 30.964 172.685 31.54H158.105C158.225 32.98 158.729 34.108 159.617 34.924C160.505 35.74 161.597 36.148 162.893 36.148C164.765 36.148 166.097 35.344 166.889 33.736H172.325C171.749 35.656 170.645 37.24 169.013 38.488C167.381 39.712 165.377 40.324 163.001 40.324C161.081 40.324 159.353 39.904 157.817 39.064C156.305 38.2 155.117 36.988 154.253 35.428C153.413 33.868 152.993 32.068 152.993 30.028C152.993 27.964 153.413 26.152 154.253 24.592C155.093 23.032 156.269 21.832 157.781 20.992C159.293 20.152 161.033 19.732 163.001 19.732C164.897 19.732 166.589 20.14 168.077 20.956C169.589 21.772 170.753 22.936 171.569 24.448C172.409 25.936 172.829 27.652 172.829 29.596ZM167.609 28.156C167.585 26.86 167.117 25.828 166.205 25.06C165.293 24.268 164.177 23.872 162.857 23.872C161.609 23.872 160.553 24.256 159.689 25.024C158.849 25.768 158.333 26.812 158.141 28.156H167.609ZM175.211 29.956C175.211 27.94 175.607 26.152 176.399 24.592C177.215 23.032 178.307 21.832 179.675 20.992C181.067 20.152 182.615 19.732 184.319 19.732C185.807 19.732 187.103 20.032 188.207 20.632C189.335 21.232 190.235 21.988 190.907 22.9V20.056H195.983V40H190.907V37.084C190.259 38.02 189.359 38.8 188.207 39.424C187.079 40.024 185.771 40.324 184.283 40.324C182.603 40.324 181.067 39.892 179.675 39.028C178.307 38.164 177.215 36.952 176.399 35.392C175.607 33.808 175.211 31.996 175.211 29.956ZM190.907 30.028C190.907 28.804 190.667 27.76 190.187 26.896C189.707 26.008 189.059 25.336 188.243 24.88C187.427 24.4 186.551 24.16 185.615 24.16C184.679 24.16 183.815 24.388 183.023 24.844C182.231 25.3 181.583 25.972 181.079 26.86C180.599 27.724 180.359 28.756 180.359 29.956C180.359 31.156 180.599 32.212 181.079 33.124C181.583 34.012 182.231 34.696 183.023 35.176C183.839 35.656 184.703 35.896 185.615 35.896C186.551 35.896 187.427 35.668 188.243 35.212C189.059 34.732 189.707 34.06 190.187 33.196C190.667 32.308 190.907 31.252 190.907 30.028ZM199.61 30.028C199.61 27.964 200.03 26.164 200.87 24.628C201.71 23.068 202.874 21.868 204.362 21.028C205.85 20.164 207.554 19.732 209.474 19.732C211.946 19.732 213.986 20.356 215.594 21.604C217.226 22.828 218.318 24.556 218.87 26.788H213.434C213.146 25.924 212.654 25.252 211.958 24.772C211.286 24.268 210.446 24.016 209.438 24.016C207.998 24.016 206.858 24.544 206.018 25.6C205.178 26.632 204.758 28.108 204.758 30.028C204.758 31.924 205.178 33.4 206.018 34.456C206.858 35.488 207.998 36.004 209.438 36.004C211.478 36.004 212.81 35.092 213.434 33.268H218.87C218.318 35.428 217.226 37.144 215.594 38.416C213.962 39.688 211.922 40.324 209.474 40.324C207.554 40.324 205.85 39.904 204.362 39.064C202.874 38.2 201.71 37 200.87 35.464C200.03 33.904 199.61 32.092 199.61 30.028ZM228.43 24.196V33.844C228.43 34.516 228.586 35.008 228.898 35.32C229.234 35.608 229.786 35.752 230.554 35.752H232.894V40H229.726C225.478 40 223.354 37.936 223.354 33.808V24.196H220.978V20.056H223.354V15.124H228.43V20.056H232.894V24.196H228.43Z" fill="#C6B419"/>
</svg>
